PathFileType	4	(X/Y/Z)	s05c0403.trc
DataRate	CameraRate	NumFrames	NumMarkers	Units	OrigDataRate	OrigDataStartFrame	OrigNumFrames
200	200	4	49	mm	200	1750	2000
Frame#	Time	racr			lacr			c7			jug			rlel			rdr			llel			ldr			s2			lic			ric			lasi			rasi			rpsi			lpsi			rgt			lgt			rth1			rth2			rth3			rth4			rlfc			rsh1			rsh2			rsh3			rsh4			rlmal			rmmal			rcal			rtoe			rmt5			lth1			lth2			lth4			lth3			llfc			lmfc			lsh1			lsh2			lsh3			lsh4			llmal			lmmal			lcal			ltoe			lmt5			SBIKE			LBIKE			RBIKE			
		X1	Y1	Z1	X2	Y2	Z2	X3	Y3	Z3	X4	Y4	Z4	X5	Y5	Z5	X6	Y6	Z6	X7	Y7	Z7	X8	Y8	Z8	X9	Y9	Z9	X10	Y10	Z10	X11	Y11	Z11	X12	Y12	Z12	X13	Y13	Z13	X14	Y14	Z14	X15	Y15	Z15	X16	Y16	Z16	X17	Y17	Z17	X18	Y18	Z18	X19	Y19	Z19	X20	Y20	Z20	X21	Y21	Z21	X22	Y22	Z22	X23	Y23	Z23	X24	Y24	Z24	X25	Y25	Z25	X26	Y26	Z26	X27	Y27	Z27	X28	Y28	Z28	X29	Y29	Z29	X30	Y30	Z30	X31	Y31	Z31	X32	Y32	Z32	X33	Y33	Z33	X34	Y34	Z34	X35	Y35	Z35	X36	Y36	Z36	X37	Y37	Z37	X38	Y38	Z38	X39	Y39	Z39	X40	Y40	Z40	X41	Y41	Z41	X42	Y42	Z42	X43	Y43	Z43	X44	Y44	Z44	X45	Y45	Z45	X46	Y46	Z46	X47	Y47	Z47	X48	Y48	Z48	X49	Y49	Z49	
1750	8.7500	661.414318	1256.363792	-124.501230	633.777963	1294.778663	-408.154194	638.789217	1341.832493	-267.387687	583.828805	1186.849083	-271.649569	527.807271	1094.012201	72.240347	667.914244	954.960287	-48.618801	470.293246	1110.125484	-585.785632	665.682011	964.318161	-513.765100	28.911109	1216.183577	-263.652516	182.704959	1197.855474	-407.820338	180.348417	1184.312575	-129.323508	201.831702	1132.542920	-372.294122	199.179402	1120.312064	-161.248124	77.966891	1248.664629	-221.835116	81.540650	1255.865819	-307.676326	109.002505	1086.069837	-99.131415	74.091829	1117.308839	-440.494326	200.755507	1017.194131	-88.554988	283.697956	984.976306	-86.350621	337.169506	915.136845	-86.359053	304.387844	1012.455724	-100.363069	441.652771	809.823087	-113.380467	345.375597	761.928676	-87.600537	286.385997	697.738299	-103.962363	206.274180	667.482453	-107.783481	305.101162	676.359627	-130.703683	99.687978	600.653775	-118.660308	129.437286	612.205661	-195.522375	28.499053	629.336173	-165.426224	201.338941	389.477687	-160.270350	121.623292	455.176987	-94.572887	132.971236	981.271792	-471.685798	195.785689	923.018697	-473.527154	227.336494	940.163277	-462.519928	220.444641	835.954342	-476.098288	285.433698	704.559362	-449.486308	280.848950	691.249918	-342.324076	239.196430	582.782709	-470.516370	247.526219	496.482765	-458.429688	210.383433	415.888740	-453.237640	280.050172	494.174408	-438.159176	197.258313	298.708620	-442.144540	228.804764	334.057642	-373.051246	134.550477	272.854963	-395.977881	417.709129	194.584633	-404.622018	305.744083	187.432449	-466.166047	-169.732514	899.481324	-273.767152	-53.230945	79.029522	-474.799689	-53.290023	79.246882	-77.188348	
1751	8.7550	658.798280	1256.668446	-123.723870	631.184267	1295.205190	-407.090256	635.946490	1341.855844	-266.458545	581.136662	1186.829376	-270.776254	526.495154	1093.091756	72.578828	667.906057	955.199806	-48.451623	469.661025	1109.717279	-585.434771	665.326867	964.378241	-512.554294	26.385479	1214.627843	-264.750155	180.827329	1196.099571	-408.291887	177.078142	1184.271357	-129.690679	199.877974	1130.813993	-372.463528	196.462711	1120.440226	-161.375834	75.167128	1247.682977	-223.343489	79.046288	1254.364658	-308.987839	106.773906	1086.563136	-98.808641	72.133151	1114.465709	-440.747058	199.822789	1020.090927	-88.749452	283.619054	990.176653	-86.348237	339.057858	921.499177	-87.151563	303.590896	1017.988630	-100.537894	445.741800	818.902218	-113.456061	349.715823	770.499748	-88.329599	291.113134	705.852356	-104.573175	211.221526	675.211728	-108.673435	310.027455	684.431268	-131.172794	104.799647	607.402343	-119.759515	134.103034	618.783944	-196.908921	33.265570	634.720686	-167.123420	211.642209	398.914866	-158.560437	129.191446	462.553366	-94.847899	129.451208	977.678780	-471.734063	191.108815	918.134135	-473.506066	222.969233	934.609108	-462.395660	214.032595	830.566616	-475.715673	277.212117	698.788573	-448.621453	272.231419	685.600218	-341.513231	230.926559	577.506879	-470.029836	239.371769	491.157599	-458.059256	202.296715	410.501582	-452.648659	272.023840	488.829932	-437.983145	190.155791	293.432662	-441.916787	221.640971	328.629804	-372.737744	127.518715	268.116698	-395.771793	409.881061	187.007411	-404.503532	297.817282	180.989503	-465.973323	-169.580203	899.447600	-274.335245	-53.234781	79.021448	-474.780948	-53.297057	79.229350	-77.183464	
1752	8.7600	656.219249	1256.909518	-122.974468	628.544751	1295.462351	-406.011311	633.095535	1341.890558	-265.655343	578.417906	1186.851847	-269.985702	525.071307	1092.024689	72.877027	667.672245	955.192165	-47.926073	468.837615	1109.181861	-585.055879	664.930688	964.402166	-511.481843	23.888858	1213.174741	-265.859817	178.925701	1194.208744	-408.814975	173.845833	1184.305682	-129.971546	197.910539	1129.093419	-372.667738	193.980538	1120.665801	-161.415720	72.321742	1246.757062	-224.758170	76.501543	1252.905192	-310.332926	104.617756	1087.351590	-98.506224	70.091312	1111.708508	-440.883442	198.753278	1022.912219	-89.051475	283.300532	995.026415	-86.589636	340.434657	927.708967	-87.101826	302.630002	1023.325784	-100.684464	449.686513	827.862923	-113.460040	353.975899	778.825838	-88.989449	295.857771	713.880586	-105.111820	215.923606	682.892430	-109.484583	314.644555	692.540289	-131.547210	109.896340	613.556847	-120.942277	140.517353	625.251342	-197.387432	38.059860	639.437539	-168.825287	221.348193	407.566301	-158.199073	136.711632	469.369703	-95.194684	125.984885	974.228998	-471.662033	186.497650	913.597454	-473.388923	218.679331	929.396082	-462.221194	207.431899	825.370926	-475.394734	269.435191	693.552556	-447.714165	264.742381	680.887091	-340.518067	222.932778	572.695061	-469.487872	231.348474	486.382873	-457.662511	194.199220	405.803905	-452.118455	264.047392	483.991311	-437.702635	182.820151	288.595240	-441.679518	214.264547	323.678719	-372.338399	120.154343	263.993923	-395.523400	401.690842	179.906666	-404.387061	289.536569	174.996118	-465.776526	-169.624792	899.465356	-273.638536	-53.235538	79.025652	-474.777932	-53.309408	79.220250	-77.171097	
1753	8.7650	653.540471	1257.441722	-122.352203	625.806432	1295.780748	-404.925982	630.200754	1342.067562	-264.836146	575.741554	1187.043530	-269.183589	523.775524	1091.156678	73.084286	667.478326	955.153696	-47.283906	468.290554	1108.906825	-584.774087	664.580986	964.441796	-510.661360	21.434259	1211.694095	-266.849045	176.877864	1192.484602	-409.216472	170.647889	1184.451622	-130.268582	195.822350	1127.338057	-372.735236	191.804049	1120.983025	-161.350445	69.538227	1245.807012	-226.209169	73.919106	1251.403582	-311.426751	102.539332	1088.170795	-98.029142	68.036136	1108.991653	-440.995359	197.562206	1025.635689	-89.357021	282.732367	999.624360	-86.766397	341.462954	933.783600	-86.985860	301.243168	1028.391908	-100.989772	453.235040	836.648282	-113.331679	357.883434	787.220855	-89.618541	300.287682	721.664225	-105.686403	220.667401	690.111168	-110.216809	319.484317	700.253042	-131.753194	115.215539	619.191271	-122.129811	146.309993	631.010206	-198.034736	42.849117	643.507802	-170.403930	230.124284	414.757549	-158.752861	144.809073	475.739096	-95.581624	122.437126	971.123373	-471.513679	182.042320	909.240963	-473.124458	214.466870	924.594800	-461.958951	201.506713	820.875814	-475.106703	262.077527	688.876318	-446.829279	256.864414	675.402581	-340.109562	215.118236	568.408056	-468.509294	223.465000	482.156645	-457.172633	186.139328	401.659899	-451.676738	256.227526	479.668091	-437.340129	175.128568	284.354855	-441.228371	206.722305	319.219194	-371.864776	112.542613	260.448792	-395.176852	393.141378	173.270973	-404.222246	280.914954	169.619244	-465.578841	-169.701885	899.469048	-273.836045	-53.233684	79.034161	-474.767393	-53.291523	79.220747	-77.166170	
